<svg xmlns="http://www.w3.org/2000/svg" width="166.2" height="65" viewBox="0 0 166.2 65">
  <g id="Layer_2" data-name="Layer 2" transform="translate(0 0)">
    <g id="Layer_1" data-name="Layer 1" transform="translate(0 0)">
      <circle id="Ellipse_39" data-name="Ellipse 39" cx="32.5" cy="32.5" r="32.5" transform="translate(101.2 0)" fill="#0f056b"/>
      <path id="Path_957" data-name="Path 957" d="M0,110.52V87.72H5.491v22.8Z" transform="translate(0 -68.991)" fill="#0f056b"/>
      <path id="Path_958" data-name="Path 958" d="M41.176,115.7h5.53v16.523h-5.38v-1.954a4.437,4.437,0,0,1-4.119,2.338,5.733,5.733,0,0,1-4.866-2.306,12.473,12.473,0,0,1,0-12.68,5.74,5.74,0,0,1,4.866-2.306,4.4,4.4,0,0,1,3.969,2.114ZM38.7,128a2.129,2.129,0,0,0,1.939-.993,5.706,5.706,0,0,0,.628-3.042,5.79,5.79,0,0,0-.628-3.057,2.141,2.141,0,0,0-1.939-.978q-2.562,0-2.562,4.163a5.511,5.511,0,0,0,.628,2.989A2.175,2.175,0,0,0,38.7,128Z" transform="translate(-24.075 -90.698)" fill="#0f056b"/>
      <path id="Path_959" data-name="Path 959" d="M121.439,134.028a7.2,7.2,0,0,1-7.789-7.782V117.12h5.521V126.3a2.386,2.386,0,0,0,1.068,2.434,2.173,2.173,0,0,0,2.372,0,2.4,2.4,0,0,0,1.068-2.434V117.12H129.2v9.125a7.663,7.663,0,0,1-2.09,5.733A7.749,7.749,0,0,1,121.439,134.028Z" transform="translate(-89.385 -92.114)" fill="#0f056b"/>
      <path id="Path_960" data-name="Path 960" d="M208.2,116.936a6.631,6.631,0,0,1,1.463,4.595v10.7h-5.491V122.78q0-2.466-2.09-2.466a2.293,2.293,0,0,0-1.732.722,2.835,2.835,0,0,0-.685,2.033v9.159H194.17V115.7h5.372v2.178a5.68,5.68,0,0,1,4.806-2.562A4.952,4.952,0,0,1,208.2,116.936Z" transform="translate(-152.713 -90.698)" fill="#0f056b"/>
      <path id="Path_961" data-name="Path 961" d="M282.439,87.72h5.491v22.8h-5.338v-1.986a4.9,4.9,0,0,1-4.385,2.37,5.694,5.694,0,0,1-4.806-2.338,10.245,10.245,0,0,1-1.761-6.309,10.235,10.235,0,0,1,1.761-6.307,5.728,5.728,0,0,1,4.806-2.349,4.9,4.9,0,0,1,4.238,2.146Zm-2.6,18.575q2.686,0,2.688-4.035t-2.688-4.035q-2.684,0-2.686,4.163,0,3.905,2.686,3.905Z" transform="translate(-213.643 -68.991)" fill="#0f056b"/>
      <path id="Path_962" data-name="Path 962" d="M366.254,116.015V121.3h-1.433q-3.7,0-3.7,4.356V132.7H355.63V116.175H361v3.264q.8-3.519,4.148-3.521A5.633,5.633,0,0,1,366.254,116.015Z" transform="translate(-279.701 -91.169)" fill="#0f056b"/>
      <path id="Path_963" data-name="Path 963" d="M416.37,117.12h5.611L416.111,132.3l-2.835,7.622h-5.252l2.626-6.95-5.91-15.851h5.88l.149.512q1.161,3.807,2.562,9.125,1.823-5.54,2.746-8.645Z" transform="translate(-318.325 -92.114)" fill="#0f056b"/>
      <path id="Path_964" data-name="Path 964" d="M494.766,98.716v4.161h-2.3v12.362h-5.491V102.877H484.8V98.716h2.178v-5h5.494v5Z" transform="translate(-381.292 -73.71)" fill="#fff"/>
      <path id="Path_965" data-name="Path 965" d="M539.076,132.573a7.992,7.992,0,0,1-6.057-2.37,8.607,8.607,0,0,1-2.24-6.277,8.732,8.732,0,0,1,2.24-6.307,8.988,8.988,0,0,1,12.116,0,9.965,9.965,0,0,1,0,12.584A7.935,7.935,0,0,1,539.076,132.573Zm0-4.612q2.776,0,2.776-4.035t-2.776-4.035q-2.776,0-2.776,4.035T539.076,127.961Z" transform="translate(-417.454 -90.659)" fill="#fff"/>
      <path id="Path_966" data-name="Path 966" d="M621.515,115.7h5.374v16.075a6.6,6.6,0,0,1-2.135,5.237,8.814,8.814,0,0,1-6.015,1.872,8.577,8.577,0,0,1-5.671-1.68,6.005,6.005,0,0,1-2.088-4.663h5.4q.09,2.018,2.507,2.018a2.459,2.459,0,0,0,1.866-.673A2.631,2.631,0,0,0,621.4,132v-2.562a4.576,4.576,0,0,1-4.121,2.135,5.906,5.906,0,0,1-4.834-2.306,8.986,8.986,0,0,1-1.851-5.861,9.11,9.11,0,0,1,1.8-5.846,5.8,5.8,0,0,1,4.776-2.242,4.646,4.646,0,0,1,4.356,2.4Zm-2.724,11.271q2.688,0,2.686-3.555,0-3.491-2.686-3.491t-2.686,3.63Q616.113,126.975,618.791,126.975Z" transform="translate(-480.225 -90.698)" fill="#fff"/>
      <path id="Path_967" data-name="Path 967" d="M700.117,132.573a8,8,0,0,1-6.059-2.37,9.965,9.965,0,0,1,0-12.584,8.036,8.036,0,0,1,6.059-2.349,7.93,7.93,0,0,1,6.059,2.349,8.889,8.889,0,0,1,2.238,6.307,8.769,8.769,0,0,1-2.238,6.277A8,8,0,0,1,700.117,132.573Zm0-4.612q2.776,0,2.776-4.035t-2.776-4.035q-2.776,0-2.776,4.035T700.117,127.961Z" transform="translate(-544.112 -90.659)" fill="#fff"/>
    </g>
  </g>
</svg>
