<svg id="Layer_2" data-name="Layer 2" xmlns="http://www.w3.org/2000/svg" width="486.701" height="190.346" viewBox="0 0 486.701 190.346">
  <g id="Layer_1" data-name="Layer 1" transform="translate(0 0)">
    <circle id="Ellipse_39" data-name="Ellipse 39" cx="95.173" cy="95.173" r="95.173" transform="translate(296.355 0)" fill="#fff"/>
    <path id="Path_957" data-name="Path 957" d="M0,154.489V87.72H16.081v66.769Z" transform="translate(0 -32.874)" fill="#fff"/>
    <path id="Path_958" data-name="Path 958" d="M61.553,116.445H77.746v48.387H61.99v-5.721a12.994,12.994,0,0,1-12.061,6.846q-9.178,0-14.249-6.753T30.61,140.636q0-11.817,5.071-18.563T49.93,115.32a12.894,12.894,0,0,1,11.623,6.19ZM54.3,152.453a6.234,6.234,0,0,0,5.677-2.907q1.838-2.814,1.838-8.91t-1.838-8.953a6.271,6.271,0,0,0-5.677-2.864q-7.5,0-7.5,12.192,0,6,1.838,8.753A6.368,6.368,0,0,0,54.3,152.453Z" transform="translate(-11.472 -43.218)" fill="#fff"/>
    <path id="Path_959" data-name="Path 959" d="M136.459,166.632q-10.485,0-16.606-6-6.2-6.1-6.2-16.788V117.12h16.169v26.885q-.35,5.064,3.126,7.128a6.365,6.365,0,0,0,6.946,0q3.458-2.063,3.126-7.128V117.12h16.169v26.723q0,10.785-6.121,16.788T136.459,166.632Z" transform="translate(-42.592 -43.893)" fill="#fff"/>
    <path id="Path_960" data-name="Path 960" d="M235.248,120.053q4.277,4.739,4.283,13.455v31.324H223.45V137.166q0-7.221-6.121-7.221a6.715,6.715,0,0,0-5.071,2.113,8.3,8.3,0,0,0-2.007,5.952v26.823H194.17V116.445H209.9v6.377q5.421-7.5,14.074-7.5A14.5,14.5,0,0,1,235.248,120.053Z" transform="translate(-72.768 -43.218)" fill="#fff"/>
    <path id="Path_961" data-name="Path 961" d="M303.264,87.72h16.081v66.769H303.714v-5.815a14.351,14.351,0,0,1-12.842,6.94,16.674,16.674,0,0,1-14.074-6.846q-5.158-6.846-5.158-18.476t5.158-18.469a16.775,16.775,0,0,1,14.074-6.878,14.364,14.364,0,0,1,12.411,6.284Zm-7.609,54.4q7.865,0,7.872-11.817t-7.872-11.817q-7.859,0-7.865,12.192,0,11.436,7.865,11.436Z" transform="translate(-101.801 -32.874)" fill="#fff"/>
    <path id="Path_962" data-name="Path 962" d="M386.742,116.2v15.468h-4.2q-10.829,0-10.835,12.755v20.633H355.63V116.67h15.731v9.56q2.351-10.3,12.148-10.31A16.5,16.5,0,0,1,386.742,116.2Z" transform="translate(-133.278 -43.442)" fill="#fff"/>
    <path id="Path_963" data-name="Path 963" d="M438.8,117.12h16.431L438.04,161.568l-8.3,22.321H414.356l7.691-20.351L404.74,117.12h17.219l.438,1.5q3.4,11.148,7.5,26.722,5.34-16.225,8.041-25.316Z" transform="translate(-151.683 -43.893)" fill="#fff"/>
    <path id="Path_964" data-name="Path 964" d="M513.986,108.35v12.186h-6.727v36.2H491.178v-36.2H484.8V108.35h6.378V93.72h16.087v14.63Z" transform="translate(-181.686 -35.123)" fill="#0f056b"/>
    <path id="Path_965" data-name="Path 965" d="M555.076,165.939q-11.1,0-17.738-6.94t-6.559-18.382q0-11.629,6.559-18.469,6.465-6.878,17.738-6.878t17.744,6.878q6.559,6.928,6.552,18.469,0,11.442-6.552,18.382T555.076,165.939Zm0-13.505q8.128,0,8.128-11.817T555.076,128.8q-8.128,0-8.128,11.817T555.076,152.434Z" transform="translate(-198.918 -43.199)" fill="#0f056b"/>
    <path id="Path_966" data-name="Path 966" d="M642.583,116.445H658.32v47.074q0,9.848-6.252,15.337t-17.613,5.483q-10.748,0-16.606-4.921t-6.115-13.655h15.818q.262,5.909,7.34,5.909a7.2,7.2,0,0,0,5.465-1.969,7.7,7.7,0,0,0,1.876-5.533v-7.5q-4.026,6.252-12.067,6.252a17.294,17.294,0,0,1-14.156-6.753q-5.42-6.659-5.421-17.163t5.258-17.119a16.985,16.985,0,0,1,13.986-6.565q8.747,0,12.755,7.034Zm-7.978,33.006q7.872,0,7.865-10.41,0-10.223-7.865-10.223t-7.866,10.629Q626.765,149.452,634.605,149.452Z" transform="translate(-228.828 -43.218)" fill="#0f056b"/>
    <path id="Path_967" data-name="Path 967" d="M716.117,165.939q-11.092,0-17.744-6.94-6.559-6.94-6.552-18.382,0-11.629,6.552-18.469t17.744-6.878q11.254,0,17.744,6.878t6.552,18.469q0,11.442-6.552,18.382Q727.215,165.939,716.117,165.939Zm0-13.505q8.128,0,8.128-11.817T716.117,128.8q-8.128,0-8.128,11.817T716.117,152.434Z" transform="translate(-259.271 -43.199)" fill="#0f056b"/>
  </g>
</svg>
